<svg width="102" height="102" viewBox="0 0 102 102" fill="none" xmlns="http://www.w3.org/2000/svg">
<path d="M88.3975 0C95.9083 0 101.997 6.08875 101.997 13.5996V88.3975C101.997 95.9083 95.9083 101.997 88.3975 101.997H13.5996C6.08875 101.997 0 95.9083 0 88.3975V13.5996C3.08734e-05 6.08877 6.08877 2.51227e-05 13.5996 0H88.3975ZM54.8447 23.3633C45.3131 21.4923 38.4909 26.181 32.9844 33.0732C22.5999 46.0559 19.009 61.5462 17 78.1123C22.3402 78.1123 27.0156 78.1193 31.6982 78.0977C32.1607 78.0904 32.6166 77.9168 33.0068 77.8301C35.1387 71.2775 39.9224 68.4018 49.3096 67.9395C59.3834 67.441 66.2701 70.8731 69.2764 77.8955H85.1025C82.9129 60.5925 79.1339 44.2353 67.2969 30.9131C63.9654 27.1635 59.8961 24.3531 54.8447 23.3633ZM47.3369 35.9053C50.1191 33.6225 53.87 33.9838 56.2764 37.2637C59.1525 41.1722 61.3565 45.6157 63.4883 50.001C64.6723 52.4335 65.1205 55.2123 66.2168 58.8848C56.1514 53.959 46.7211 53.3756 36.3955 57.6738C38.6719 49.1704 40.674 41.3527 47.3369 35.9053Z" fill="#C56C31"/>
</svg>
