<svg width="9" height="57" viewBox="0 0 9 57" fill="none" xmlns="http://www.w3.org/2000/svg">
<path d="M3.99419 56.4243C4.22851 56.6586 4.6084 56.6586 4.84272 56.4243L8.6611 52.6059C8.89541 52.3716 8.89541 51.9917 8.6611 51.7574C8.42678 51.523 8.04688 51.523 7.81257 51.7574L4.41845 55.1515L1.02434 51.7574C0.790028 51.523 0.410129 51.523 0.175814 51.7574C-0.0585007 51.9917 -0.0585007 52.3716 0.175814 52.6059L3.99419 56.4243ZM4.41846 0L3.81846 -2.62268e-08L3.81846 1L4.41846 1L5.01846 1L5.01846 2.62268e-08L4.41846 0ZM4.41846 3L3.81846 3L3.81846 5L4.41846 5L5.01846 5L5.01846 3L4.41846 3ZM4.41846 7L3.81846 7L3.81846 9L4.41846 9L5.01846 9L5.01846 7L4.41846 7ZM4.41846 11L3.81846 11L3.81846 13L4.41846 13L5.01846 13L5.01846 11L4.41846 11ZM4.41846 15L3.81846 15L3.81846 17L4.41846 17L5.01846 17L5.01846 15L4.41846 15ZM4.41846 19L3.81846 19L3.81846 21L4.41846 21L5.01846 21L5.01846 19L4.41846 19ZM4.41846 23L3.81846 23L3.81846 25L4.41846 25L5.01846 25L5.01846 23L4.41846 23ZM4.41846 27L3.81846 27L3.81846 29L4.41846 29L5.01846 29L5.01846 27L4.41846 27ZM4.41846 31L3.81846 31L3.81846 33L4.41846 33L5.01846 33L5.01846 31L4.41846 31ZM4.41846 35L3.81846 35L3.81846 37L4.41846 37L5.01846 37L5.01846 35L4.41846 35ZM4.41846 39L3.81846 39L3.81846 41L4.41846 41L5.01846 41L5.01846 39L4.41846 39ZM4.41846 43L3.81846 43L3.81846 45L4.41846 45L5.01846 45L5.01846 43L4.41846 43ZM4.41845 47L3.81845 47L3.81845 49L4.41845 49L5.01845 49L5.01846 47L4.41845 47ZM4.41845 51L3.81845 51L3.81845 53L4.41845 53L5.01845 53L5.01845 51L4.41845 51ZM4.41845 55L3.81845 55L3.81845 56L4.41845 56L5.01845 56L5.01845 55L4.41845 55ZM3.99419 56.4243C4.22851 56.6586 4.6084 56.6586 4.84272 56.4243L8.6611 52.6059C8.89541 52.3716 8.89541 51.9917 8.6611 51.7574C8.42678 51.523 8.04688 51.523 7.81257 51.7574L4.41845 55.1515L1.02434 51.7574C0.790028 51.523 0.410129 51.523 0.175814 51.7574C-0.0585007 51.9917 -0.0585007 52.3716 0.175814 52.6059L3.99419 56.4243ZM4.41846 0L3.81846 -2.62268e-08L3.81846 1L4.41846 1L5.01846 1L5.01846 2.62268e-08L4.41846 0ZM4.41846 3L3.81846 3L3.81846 5L4.41846 5L5.01846 5L5.01846 3L4.41846 3ZM4.41846 7L3.81846 7L3.81846 9L4.41846 9L5.01846 9L5.01846 7L4.41846 7ZM4.41846 11L3.81846 11L3.81846 13L4.41846 13L5.01846 13L5.01846 11L4.41846 11ZM4.41846 15L3.81846 15L3.81846 17L4.41846 17L5.01846 17L5.01846 15L4.41846 15ZM4.41846 19L3.81846 19L3.81846 21L4.41846 21L5.01846 21L5.01846 19L4.41846 19ZM4.41846 23L3.81846 23L3.81846 25L4.41846 25L5.01846 25L5.01846 23L4.41846 23ZM4.41846 27L3.81846 27L3.81846 29L4.41846 29L5.01846 29L5.01846 27L4.41846 27ZM4.41846 31L3.81846 31L3.81846 33L4.41846 33L5.01846 33L5.01846 31L4.41846 31ZM4.41846 35L3.81846 35L3.81846 37L4.41846 37L5.01846 37L5.01846 35L4.41846 35ZM4.41846 39L3.81846 39L3.81846 41L4.41846 41L5.01846 41L5.01846 39L4.41846 39ZM4.41846 43L3.81846 43L3.81846 45L4.41846 45L5.01846 45L5.01846 43L4.41846 43ZM4.41845 47L3.81845 47L3.81845 49L4.41845 49L5.01845 49L5.01846 47L4.41845 47ZM4.41845 51L3.81845 51L3.81845 53L4.41845 53L5.01845 53L5.01845 51L4.41845 51ZM4.41845 55L3.81845 55L3.81845 56L4.41845 56L5.01845 56L5.01845 55L4.41845 55Z" fill="#231305"/>
</svg>
